 <svg 
   xmlns="http://www.w3.org/2000/svg"
   viewBox="0 0 171.51 139.38"
 
   height="139.38"
   width="171.51">
 
  <path 
     d="m 164.13,21.079 c -5.77,2.559 -11.98,4.287 -18.47,5.063 6.63,-3.984 11.73,-10.281 14.13,-17.7933 C 153.58,12.032 146.7,14.709 139.37,16.153 133.51,9.9024 125.16,6 115.9,6 98.148,6 83.74,20.394 83.74,38.151 c 0,2.522 0.284,4.981 0.841,7.329 C 57.85,44.137 34.161,31.342 18.296,11.886 c -2.769,4.743 -4.35,10.272 -4.35,16.166 0,11.15 5.675,20.993 14.302,26.759 -5.273,-0.164 -10.226,-1.608 -14.567,-4.021 0,0.137 0,0.274 0,0.411 0,15.573 11.085,28.569 25.79,31.53 -2.696,0.731 -5.538,1.124 -8.472,1.124 -2.065,0 -4.085,-0.201 -6.05,-0.576 4.095,12.777 15.975,22.071 30.04,22.341 -11.003,8.61 -24.867,13.76 -39.937,13.76 -2.596,0 -5.1545,-0.16 -7.6677,-0.45 14.2297,9.12 31.1367,14.45 49.2957,14.45 59.15,0 91.49,-49.004 91.49,-91.5 0,-1.389 0,-2.779 -0.1,-4.159 6.28,-4.532 11.73,-10.199 16.05,-16.642 z" />
</svg>
