<?xml version="1.0"?>
<!--?xml version="1.0" encoding="UTF-8" standalone="no"?-->
<svg xmlns:dc="http://purl.org/dc/elements/1.1/" xmlns:cc="http://creativecommons.org/ns#" xmlns:rdf="http://www.w3.org/1999/02/22-rdf-syntax-ns#" xmlns:svg="http://www.w3.org/2000/svg" xmlns="http://www.w3.org/2000/svg" xmlns:xlink="http://www.w3.org/1999/xlink" height="800" width="800" xml:space="preserve" enable-background="new 0 0 500 500" viewBox="0 0 800 800" y="0px" x="0px" id="svg8021" version="1.1"><metadata id="metadata4149"><rdf:rdf><cc:work rdf:about=""><dc:format>image/svg+xml</dc:format><dc:type rdf:resource="http://purl.org/dc/dcmitype/StillImage"></dc:type><dc:title></dc:title></cc:work></rdf:rdf></metadata><defs id="defs4147"><linearGradient id="linearGradient4176"><stop id="stop4178" offset="0" style="stop-color:#810000;stop-opacity:1;"></stop><stop id="stop4180" offset="1" style="stop-color:#810000;stop-opacity:0;"></stop></linearGradient><linearGradient gradientTransform="matrix(0.5362,0,0,0.5362,-5.947,-5.395)" gradientUnits="userSpaceOnUse" y2="-236" x2="-329.1" y1="332" x1="238.9" id="linearGradient4182" xlink:href="#linearGradient4176"></linearGradient></defs><rect y="-11.63" x="-12.82" height="833.2" width="837.5" id="rect4151" style="opacity:1;fill:#8e0000;fill-opacity:1;stroke:none;stroke-width:1.0001;stroke-linecap:round;stroke-linejoin:round;stroke-miterlimit:4;stroke-dasharray:none;stroke-opacity:1"></rect><path id="path4158" d="m -12.82,-11.63 827.72,0 -827.72,823.43 z" style="opacity:0.9009;fill:#ac0000;fill-opacity:0.2681;stroke:none;stroke-width:0.9999;stroke-linecap:round;stroke-linejoin:round;stroke-miterlimit:4;stroke-dasharray:none;stroke-opacity:1"></path><path style="fill:#aa0000" d="m 435.1,804 370.6,0 0,-372.3 L 435.1,804 Z" id="path4380"></path><path style="fill:#cc0000" d="m 389.8,804 45.3,0 370.6,-370.8 0,-45.1 L 389.8,804 Z" id="path4384"></path><path style="fill:none;stroke:#cc0000;stroke-linecap:square;stroke-miterlimit:10" d="m 318.2,791.7 10.6,0 0,-10.6 m -15.9,15.9 21,0 0,-21.1 m -26.1,26.3 31.4,0 0,-31.7 m 20.8,10.6 0,10.6 10.4,0 m -15.7,-15.9 0,21.2 21,0 m -25.9,-26.5 0,31.7 31.2,0 m -36.5,1.8 0,-38.8 m 15.5,-15.8 10.4,0 0,-10.6 m -15.7,15.8 21,0 0,-21.1 m -25.9,26.4 31.2,0 0,-31.7 m 31.3,52.9 -10.4,0 0,10.6 m 15.7,-15.9 -21,0 0,21.2 m 26.3,-26.5 -31.4,0 0,31.7 m 10.4,-63.4 0,10.6 10.4,0 m -15.7,-15.9 0,21.1 21,0 m -26.2,-26.4 0,31.7 31.2,0 m -52,31.8 0,-10.6 -10.3,0 m 15.4,15.9 0,-21.1 -21,0 m 26.3,26.3 0,-31.7 -31.2,0 m 36.4,33.5 0,-81.1 m 42,42.3 -83.7,0 m 57.4,-57.4 10.4,0 0,-10.2 m -15.7,14.8 21,0 0,-20.1 m -26.1,25.3 31.4,0 0,-30.5 m 31.4,51.7 -10.2,0 0,10.6 m 15.3,-15.9 -21,0 0,21.1 m 26.3,-26.4 -31.2,0 0,31.7 m 10.2,-62.3 0,10.2 10.4,0 m -15.7,-15.5 0,20.1 21,0 m -25.9,-25.4 0,30.7 31.2,0 m -52.2,31.7 0,-10.6 -10.4,0 m 15.5,15.8 0,-21.1 -21,0 m 26.3,26.4 0,-31.7 -31.4,0 m 36.7,37 0,-83.5 m 41.8,41.2 -83.8,0 m 57.8,-57.1 10.2,0 0,-10.4 m -15.4,15.7 20.8,0 0,-21 m -26.1,26.3 31.2,0 0,-31.4 m 31.5,52.2 -10.4,0 0,10.4 m 15.7,-15.7 -21,0 0,20.4 m 26.3,-25.7 -31.4,0 0,31 m 10.4,-62.2 0,10.4 10.4,0 m -15.7,-15.7 0,21 21,0 m -26.3,-26.2 0,31.1 31.4,0 m -52.3,31.6 0,-10.6 -10.2,0 m 15.5,15.4 0,-20.4 -20.8,0 m 26,25.6 0,-30.6 -31.2,0 m 36.5,35.9 0,-83.4 m 41.8,42.2 -83.7,0 m 57.6,-57.6 10.4,0 0,-10.2 m -15.7,15.3 21,0 0,-21 m -26.3,26.3 31.4,0 0,-31.2 m 31.4,52.1 -10.2,0 0,10.4 m 15.5,-15.7 -20.8,0 0,21 m 26.1,-26.2 -31.2,0 0,31.1 m 10.4,-62.5 0,10.4 10.2,0 m -15.5,-15.7 0,21 20.8,0 m -47.1,36.6 0,-10.4 -10.4,0 m 15.7,15.7 0,-21 -21,0 m 26.3,26.3 0,-31.4 -31.4,0 m 104.5,-31.5 -10.4,0 0,10.4 m 15.7,-15.7 -21,0 0,21 m 26.3,-26.3 -31.4,0 0,31.4 m 10.4,-62.6 0,10.4 10.4,0 m -15.7,-15.7 0,21 21,0 m -26.2,-26.3 0,31.2 31.4,0 m -52.4,31.6 0,-10.4 -10.2,0 m 15.5,15.7 0,-21 -20.8,0 m 26.1,26.3 0,-31.2 -31.4,0 0,31.2 31.2,0 m 5.4,5.1 0,-83.7 m 41.8,42.1 -83.7,0 m 58.2,-58 10.2,0 0,-10.6 m -15.5,15.7 20.8,0 0,-21 m -26.1,26.3 31.2,0 0,-31.4 m 31.5,52.2 -10.4,0 0,10.4 m 15.7,-15.7 -21,0 0,21 m 26.1,-25.9 -31.4,0 0,31.2 m 10.5,-62.8 0,10.4 10.4,0 m -15.6,-15.5 0,21 21,0 m -26.2,-26.3 0,31.4 31.4,0 m -52.4,31.4 0,-10.2 -10.2,0 m 15.5,15.3 0,-21 -20.8,0 m 26.1,26.3 0,-31.2 -31.2,0 m 36.3,36.4 0,-83.7 m 41.9,42 -83.7,0 m 57.5,-57.7 10.4,0 0,-10.2 m -15.6,15.5 21,0 0,-20.8 m -26.2,25.9 31.4,0 0,-31.4 m 31.3,52.4 -10.2,0 0,10.4 m 15.5,-15.5 -20.8,0 0,21 m 25.9,-26.3 -31.2,0 0,31.4 m 10.2,-62.9 0,10.4 10.4,0 m -15.3,-15.4 0,20.8 20.8,0 m -26.1,-26.2 0,31.4 31.2,0 m -52.2,31.5 0,-10.6 -10.4,0 m 15.7,15.7 0,-21 -21,0 m 26.1,26.3 0,-31.4 -31.4,0 m 36.7,36.7 0,-83.9 m 41.8,41.9 -83.7,0 m 57.8,-57.4 10.2,0 0,-10.4 m -15.5,15.3 20.8,0 0,-20.8 m -26.1,26.1 31.2,0 0,-31.2 m 31.5,52.2 -10.4,0 0,10.4 m 15.7,-15.7 -21,0 0,21 m 26.1,-26.1 -31.4,0 0,31.4 m 10.5,-62.8 0,10.2 10.4,0 m -15.5,-15.3 0,21 21,0 m -26.3,-26.3 0,31.2 31.4,0 M 664,498 l 0,-10.2 -10.2,0 m 15.5,15.4 0,-21 -20.8,0 m 26.1,26.2 0,-31.4 -31.2,0 m 36.3,36.7 0,-83.7 m 41.9,41.8 -83.7,0 m 57.8,-57.8 10.4,0 0,-10.4 m -15.3,15.7 20.8,0 0,-21 m -26.1,25.9 31.2,0 0,-31.2 m 31.5,52.2 -10.4,0 0,10.4 m 15.6,-15.5 -21,0 0,21 m 26.2,-26.3 -31.4,0 0,31.4 m 10.5,-62.6 0,10.4 10.4,0 m -15.7,-15.7 0,21 21,0 m -26.1,-26.3 0,31.2 31.4,0 m -52.4,31.5 0,-10.4 -10.2,0 m 15.3,15.7 0,-21 -21,0 m 26.3,26.1 0,-31.4 -31.2,0 m 36.5,36.7 0,-83.7 m 41.9,41.8 -83.7,0 m 57.5,-57.5 10.4,0 0,-10.4 m -15.7,15.7 21,0 0,-21 m -26.1,26.3 31.4,0 0,-31.2 m 31.3,52.2 -10.2,0 0,10.4 m 15.3,-15.7 -21,0 0,21 m 26.3,-26.3 -31.2,0 0,31.2 m 10.2,-62.6 0,10.4 10.4,0 m -15.6,-15.7 0,21 21,0 m -26,-26.2 0,31.4 31.2,0 m -52.2,31.5 0,-10.4 -10.4,0 m 15.6,15.7 0,-21 -21,0 m 26.2,25.9 0,-31.2 -31.4,0 m 36.7,36.5 0,-83.7 m 41.8,41.9 -83.7,0 m 57.4,-57.4 10.4,0 0,-10.4 m -15.3,15.6 20.8,0 0,-21 m -26.1,26 31.2,0 0,-31.2 M 790,372 l 0,-10.4 -10.2,0 m 15.5,15.7 0,-21 -20.8,0 m 25.9,26.1 0,-31.3 -31.2,0 m 36.5,36.6 0,-83.7 m 0,41.8 -41.8,0 m -252,335.9 0,-83.7 m 41.8,41.7 -83.7,0 m 57.8,-57.6 10.2,0 0,-10.4 m -15.5,15.7 20.8,0 0,-21 m -26.1,26.3 31.2,0 0,-31.4" stroke-miterlimit="10" id="t-pattern"></path><path id="rect4153" d="m -12.82,-11.63 330.72,0 -330.72,329.03 z" style="opacity:0.484;fill:url(#linearGradient4182);fill-opacity:1;stroke:none;stroke-width:1.0002;stroke-linecap:round;stroke-linejoin:round;stroke-miterlimit:4;stroke-dasharray:none;stroke-opacity:1"></path></svg>
