<?xml version="1.0"?>

<svg xmlns="http://www.w3.org/2000/svg" viewBox="0 0 256 256" height="256" width="256">
  
  <path d="M 45.49,10 C 25.83,10 10,25.83 10,45.49 l 0,165.01 c 0,19.7 15.83,35.5 35.49,35.5 l 165.01,0 c 19.7,0 35.5,-15.8 35.5,-35.5 L 246,45.49 C 246,25.83 230.2,10 210.5,10 L 45.49,10 Z m 128.61,24.44 25.4,0 0,32.02 -16,0 c -11.8,0 -12.6,4.48 -12.6,12.84 l 0,16 28.8,0 -3.4,32 -25.4,0 0,92.9 0,0 -38.1,0 0,-92.9 -19,0 0,-31.98 19,0 0,-19.23 c 0,-26.11 10.8,-41.65 41.3,-41.65 z"></path>
   
</svg>
