<?xml version="1.0"?>

<svg xmlns="http://www.w3.org/2000/svg" viewBox="0 0 256 256" height="256px" width="256px"> <path d="m 45.98,10.51 c -19.6,0 -35.48,15.88 -35.48,35.48 l 0,164.01 c 0,19.6 15.88,35.5 35.48,35.5 l 164.02,0 c 19.6,0 35.5,-15.9 35.5,-35.5 l 0,-164.01 c 0,-19.6 -15.9,-35.48 -35.5,-35.48 l -164.02,0 z m 18.2,39.8 c 12.08,0 19.52,7.93 19.75,18.36 0,10.2 -7.67,18.36 -19.98,18.36 l -0.23,0 C 51.86,87.03 44.2,78.87 44.2,68.67 44.2,58.24 52.09,50.31 64.18,50.31 Z M 168.3,99.04 c 23.2,0 40.7,15.16 40.7,47.76 l 0,61 -35.3,0 0,-56.9 c 0,-14.3 -5.2,-24 -17.9,-24 -9.8,0 -15.6,6.5 -18.2,12.9 -0.9,2.3 -1.1,5.4 -1.1,8.6 l 0,59.4 -35.3,0 c 0,0 0.4,-96.3 0,-106.3 l 35.3,0 0,15 c 4.7,-7.2 13.1,-17.46 31.8,-17.46 z m -122.01,2.46 35.31,0 0,106.3 -35.31,0 0,-106.3 z"></path> </svg>
