<?xml version="1.0"?>

<svg xmlns="http://www.w3.org/2000/svg" viewBox="0 0 256 256" width="256" height="256">   <path d="m 50.39,126.4 c -22.65,0 -41.009,18.4 -41.009,41 l 0,35.8 c 0,22.7 18.359,41.1 41.009,41.1 l 153.71,0 c 22.7,0 41.1,-18.4 41.1,-41.1 l 0,-35.8 c 0,-22.6 -18.4,-41 -41.1,-41 l -153.71,0 z m -18.94,15.8 43.14,0 0,11.1 -14.48,0 0,73.9 -14.8,0 0,-73.9 -13.86,0 0,-11.1 z m 98.15,0 13.9,0 0,27.6 c 5.4,-4.8 9.1,-6.7 13.3,-6.7 3.1,0 6.6,1.5 8.2,3.6 1.7,2.2 2.2,4.5 2.2,11.4 l 0,35.1 c 0,6.6 -0.5,8.9 -2.2,11.2 -1.6,2.1 -5.1,3.7 -8.5,3.7 -4.1,0 -7.6,-2 -13,-6.9 l 0,6 -13.9,0 0,-85 z m 71.3,20.9 c 11.6,0 18.7,5.9 18.7,15.8 l 0,18.6 -24,0 0,13.8 c 0,4.7 1.4,6.6 5.1,6.6 1.7,0 3.3,-0.8 4.1,-1.9 0.7,-1.2 1,-2.6 1,-7.2 l 0,-3.8 13.8,0 0,2.3 c 0.1,1.6 0.1,2.8 0.1,3.5 0,11.2 -6.8,17.3 -19.4,17.3 -11.9,0 -18.6,-6.4 -18.6,-17.9 l 0,-29.4 c 0,-12 6.4,-17.7 19.2,-17.7 z m -123.76,0.7 13.85,0 0,49.4 c 0,3.1 1.1,4.7 3.66,4.7 1.8,0 3.3,-0.7 6.15,-2.6 l 0,-51.5 13.9,0 0,63.4 -12.7,0 -1.2,-5.5 c -5.68,4.7 -9.02,6.4 -13,6.4 -3.34,0 -6.84,-1.6 -8.44,-3.6 -1.74,-2.2 -2.22,-4.5 -2.22,-11 l 0,-49.7 z m 72.56,9.5 c -1.7,0 -3.3,0.6 -6.2,2.6 l 0,39.4 c 2.9,1.9 4.5,2.6 6.2,2.6 2.6,0 3.7,-1.6 3.7,-4.7 l 0,-35.1 c 0,-3.4 -1.1,-4.8 -3.7,-4.8 z m 51,0 c -3.3,0 -5.1,1.6 -5.1,4.6 l 0,10.7 10.2,0 0,-10.7 c 0,-3 -2,-4.6 -5.1,-4.6 z m -12.7,-59.5 -1.2,-6 c -6.3,5.2 -10,7 -14.4,7 -3.6,0 -7.5,-1.7 -9.3,-3.9 -1.9,-2.4 -2.4,-5 -2.4,-12.12 l 0,-54.54 15.3,0 0,54.19 c 0,3.47 1.1,5.17 4,5.17 1.8,0 3.6,-0.7 6.8,-2.9 l 0,-56.46 15.3,0 0,69.56 -14.1,0 z M 123.7,43.32 c 13.9,0 20.9,6.58 20.9,19.64 l 0,32.24 c 0,13.1 -7,19.6 -20.9,19.6 -13.7,0 -20.8,-6.5 -20.8,-19.6 l 0,-32.24 c 0,-13.06 7.1,-19.64 20.8,-19.64 z m 0,11.2 c -3.7,0 -5.5,2.32 -5.5,6.48 l 0,36.16 c 0,4.04 2.1,6.44 5.5,6.44 3.6,0 5.7,-2.4 5.7,-6.44 l 0,-36.16 c 0,-4.16 -2.1,-6.48 -5.7,-6.48 z m -74.51,-34.08 17.68,0 2.31,9.01 1.85,6.82 1.62,6.58 1.5,6.82 1.27,5.78 0.69,0 1.27,-5.78 1.39,-6.82 1.73,-6.58 1.74,-6.82 2.42,-9.01 17.24,0 -18.28,54.54 0,38.82 -16.29,0 0,-38.82 -18.14,-54.54 z"></path> </svg>
