<?xml version="1.0"?>

<svg xmlns="http://www.w3.org/2000/svg" viewBox="0 0 48 48" height="48" width="48">
  
  <path d="M 16.01,10.02 C 8.283,10.02 2.032,16.27 2.032,24 c 0,7.73 6.251,13.98 13.978,13.98 8.07,0 13.42,-5.67 13.42,-13.66 0,-0.92 0,-1.62 -0.22,-2.32 l -13.2,0 0,4.8 7.93,0 c -0.32,2.05 -2.4,6.03 -7.93,6.03 -4.77,0 -8.666,-3.96 -8.666,-8.83 0,-4.87 3.896,-8.83 8.666,-8.83 2.72,0 4.54,1.16 5.57,2.16 l 3.8,-3.65 C 22.94,11.4 19.79,10.02 16.01,10.02 Z m 21.97,7.99 0,3.99 -4,0 0,4 4,0 0,3.99 3.99,0 0,-3.99 4,0 0,-4 -4,0 0,-3.99 -3.99,0 z"></path>
   
</svg>
